<?xml version="1.0" encoding="UTF-8" standalone="no"?>
<svg
   xmlns:dc="http://purl.org/dc/elements/1.1/"
   xmlns:cc="http://creativecommons.org/ns#"
   xmlns:rdf="http://www.w3.org/1999/02/22-rdf-syntax-ns#"
   xmlns:svg="http://www.w3.org/2000/svg"
   xmlns="http://www.w3.org/2000/svg"
   xmlns:sodipodi="http://sodipodi.sourceforge.net/DTD/sodipodi-0.dtd"
   xmlns:inkscape="http://www.inkscape.org/namespaces/inkscape"
   width="15.345834mm"
   height="15.345834mm"
   viewBox="0 0 15.345834 15.345834"
   version="1.1"
   id="svg98"
   inkscape:version="1.0.2-2 (e86c870879, 2021-01-15)"
   sodipodi:docname="favicon.svg">
  <defs
     id="defs92" />
  <sodipodi:namedview
     id="base"
     pagecolor="#ffffff"
     bordercolor="#666666"
     borderopacity="1.0"
     inkscape:pageopacity="0.0"
     inkscape:pageshadow="2"
     inkscape:zoom="5.6"
     inkscape:cx="35.732586"
     inkscape:cy="36.505914"
     inkscape:document-units="mm"
     inkscape:current-layer="layer1"
     inkscape:document-rotation="0"
     showgrid="false"
     fit-margin-top="0"
     fit-margin-left="0"
     fit-margin-right="0"
     fit-margin-bottom="0"
     inkscape:window-width="1600"
     inkscape:window-height="837"
     inkscape:window-x="-8"
     inkscape:window-y="-8"
     inkscape:window-maximized="1"
     showguides="true"
     inkscape:guide-bbox="true"
     inkscape:snap-global="false">
    <sodipodi:guide
       position="14.287501,14.2875"
       orientation="0,-1"
       id="guide115" />
    <sodipodi:guide
       position="14.287501,14.2875"
       orientation="1,0"
       id="guide117" />
  </sodipodi:namedview>
  <metadata
     id="metadata95">
    <rdf:RDF>
      <cc:Work
         rdf:about="">
        <dc:format>image/svg+xml</dc:format>
        <dc:type
           rdf:resource="http://purl.org/dc/dcmitype/StillImage" />
        <dc:title />
      </cc:Work>
    </rdf:RDF>
  </metadata>
  <g
     inkscape:label="Layer 1"
     inkscape:groupmode="layer"
     id="layer1"
     transform="translate(155.83958,-10.46994)">
    <path
       id="rect73"
       style="fill:#ffffff;stroke:none;stroke-width:0.296558;paint-order:markers stroke fill"
       d="m -154.78125,10.46994 h 13.22917 c 0.58631,0 1.05833,0.472017 1.05833,1.058334 V 24.75744 c 0,0.586317 -0.47202,1.058334 -1.05833,1.058334 h -13.22917 c -0.58632,0 -1.05833,-0.472017 -1.05833,-1.058334 V 11.528274 c 0,-0.586317 0.47201,-1.058334 1.05833,-1.058334 z" />
    <path
       d="m -154.78125,24.757441 v -4.604674 h 1.47676 v 3.127919 h 3.12792 v 1.476755 z m 0,-8.618981 v -4.610186 h 4.60468 v 1.482265 h -3.12792 v 3.127921 z m 8.61898,8.618981 v -1.476755 h 3.12792 v -3.127919 h 1.48227 v 4.604674 z m 3.12792,-8.618981 v -3.127921 h -3.12792 v -1.482265 h 4.61019 v 4.610186 z"
       id="path77"
       style="stroke-width:0.0230622;fill:#000000"
       sodipodi:nodetypes="cccccccccccccccccccccccccccc" />
    <path
       d="m -148.19194,22.909895 c -1.02488,0 -1.89311,-0.358586 -2.60484,-1.075773 -0.71169,-0.717214 -1.06748,-1.596148 -1.06748,-2.636805 0,-0.79399 0.16741,-1.543884 0.50147,-2.249691 0.3343,-0.705772 0.74601,-1.373035 1.235,-2.001773 l 1.94613,-2.514973 1.97604,2.514973 c 0.45906,0.628738 0.86327,1.296001 1.21256,2.001773 0.34946,0.705807 0.52399,1.455701 0.52399,2.249691 0,1.04065 -0.36424,1.919591 -1.09281,2.636805 -0.72859,0.717182 -1.60527,1.075773 -2.63006,1.075773 z"
       id="path139"
       style="fill:#000000;stroke-width:0.0449099"
       sodipodi:nodetypes="sssscccssss" />
  </g>
</svg>
